<?xml version="1.0" encoding="UTF-8" standalone="no"?>
<svg
   width="14"
   height="14"
   viewBox="0 0 3.7041666 3.7041668"
   version="1.1"
   id="svg2925"
   sodipodi:docname="laravel-logo-for-tool-window.svg"
   inkscape:version="1.1 (c4e8f9e, 2021-05-24)"
   xmlns:inkscape="http://www.inkscape.org/namespaces/inkscape"
   xmlns:sodipodi="http://sodipodi.sourceforge.net/DTD/sodipodi-0.dtd"
   xmlns="http://www.w3.org/2000/svg"
   xmlns:svg="http://www.w3.org/2000/svg">
  <defs
     id="defs2929" />
  <sodipodi:namedview
     id="namedview2927"
     pagecolor="#505050"
     bordercolor="#eeeeee"
     borderopacity="1"
     inkscape:pageshadow="0"
     inkscape:pageopacity="0"
     inkscape:pagecheckerboard="0"
     showgrid="false"
     inkscape:zoom="46.428571"
     inkscape:cx="5.3092308"
     inkscape:cy="6.6984615"
     inkscape:window-width="1440"
     inkscape:window-height="844"
     inkscape:window-x="1"
     inkscape:window-y="0"
     inkscape:window-maximized="0"
     inkscape:current-layer="svg2925" />
  <g
     id="g2933"
     transform="translate(0.26034592,0.26458335)">
    <path
       fill="#6e6e6e"
       d="M 0.62206926,0 1.160546,0.30992674 0.62206926,0.61998832 0.0836631,0.30999416 Z M 0.02980288,0.40324525 0.02966176,2.4927371 1.2146179,3.1749422 V 2.5552188 L 0.58426492,2.1963306 0.56840576,0.71330683 0.02980288,0.40324525 M 2.561335,0.36581907 2.0228583,0.67581322 2.561335,0.98580894 3.0997412,0.67574659 2.561335,0.36581907"
       id="path2921"
       style="stroke-width:0.857143" />
    <path
       fill="#6e6e6e"
       d="M 1.2146885,0.40314725 V 1.7547728 L 0.67601573,2.0649043 V 0.71327548 L 1.2146885,0.40314725 M 1.9688021,1.382634 2.5074747,1.6927631 V 1.0790952 L 1.9688021,0.7689663 Z M 0.73084808,2.1577202 1.2684391,2.4619999 2.4530736,1.7857813 1.9149968,1.4759887 0.73084808,2.1577202 M 1.3223697,3.175 V 2.5551506 L 2.5074593,1.8786648 V 2.4927371 Z M 3.1538131,0.7689663 V 1.382634 L 2.6151403,1.6927631 V 1.0790952 Z"
       id="path2923"
       style="stroke-width:0.857143" />
  </g>
</svg>
