<?xml version="1.0" encoding="UTF-8" standalone="no"?>
<svg
        version="1.1"
        viewBox="0 0 47.744232 51.116411"
        height="16"
        width="16"
        id="svg890"
        sodipodi:docname="make-logo.svg"
        inkscape:version="1.1 (c4e8f9e, 2021-05-24)"
        xmlns:inkscape="http://www.inkscape.org/namespaces/inkscape"
        xmlns:sodipodi="http://sodipodi.sourceforge.net/DTD/sodipodi-0.dtd"
        xmlns="http://www.w3.org/2000/svg"
        xmlns:svg="http://www.w3.org/2000/svg">
    <defs
            id="defs894" />
    <sodipodi:namedview
            id="namedview892"
            pagecolor="#505050"
            bordercolor="#eeeeee"
            borderopacity="1"
            inkscape:pageshadow="0"
            inkscape:pageopacity="0"
            inkscape:pagecheckerboard="0"
            showgrid="false"
            inkscape:zoom="40.347192"
            inkscape:cx="12.10741"
            inkscape:cy="8.6870977"
            inkscape:window-width="1920"
            inkscape:window-height="1027"
            inkscape:window-x="0"
            inkscape:window-y="25"
            inkscape:window-maximized="1"
            inkscape:current-layer="svg890" />
    <g
            id="g1259"
            transform="translate(0.0724523,-3.4487748)">
        <path
                id="path12"
                fill-rule="evenodd"
                fill="#ff2d20"
                d="m 17.061113,41.185258 a 0.52503978,0.70401557 0 0 1 -0.01818,-0.181878 v -9.548157 a 0.5191988,0.69618351 0 0 1 0.260905,-0.60394 l 5.976629,-4.613956 v -9.145241 c 0,-0.248886 0.09865,-0.478626 0.259599,-0.603939 L 36.015765,6.858189 c 0.02856,-0.021756 0.05971,-0.035679 0.09086,-0.050473 0.01168,-0.00522 0.02271,-0.014794 0.03504,-0.019145 a 0.52244379,0.70053466 0 0 1 0.26609,0 c 0.01427,0.00522 0.02726,0.015664 0.04089,0.022626 0.02856,0.013924 0.05841,0.026107 0.08567,0.046992 l 12.473098,9.629958 a 0.5198478,0.69705374 0 0 1 0.260898,0.603939 v 28.644471 c 0,0.06266 -0.0065,0.123573 -0.01818,0.182749 -0.0039,0.02002 -0.01298,0.03829 -0.01818,0.05831 -0.0097,0.03655 -0.01882,0.07397 -0.0331,0.107908 -0.0097,0.02263 -0.02401,0.0409 -0.0357,0.06179 -0.01493,0.02785 -0.02856,0.05656 -0.04608,0.08093 -0.01493,0.02002 -0.0344,0.03481 -0.05127,0.05221 -0.01882,0.02088 -0.0357,0.04351 -0.05711,0.06005 h -6.49e-4 l -6.236875,4.814978 a 0.52049679,0.69792397 0 0 1 -0.5192,0 l -6.236863,-4.814978 h -0.0013 c -0.02077,-0.0174 -0.03829,-0.03916 -0.05711,-0.05918 -0.01688,-0.0174 -0.0357,-0.03307 -0.05062,-0.05221 -0.01818,-0.02524 -0.03115,-0.05395 -0.04673,-0.0818 -0.01103,-0.02089 -0.02596,-0.03916 -0.03504,-0.06179 -0.01493,-0.03481 -0.02336,-0.07136 -0.03375,-0.107908 -0.0052,-0.02002 -0.01428,-0.03829 -0.01817,-0.05918 a 0.52503978,0.70401557 0 0 1 -0.01818,-0.181878 V 27.845511 l -5.197166,4.012628 v 9.146111 c 0,0.06092 -0.0065,0.122702 -0.01818,0.181008 -0.0046,0.02088 -0.01299,0.03916 -0.01818,0.05918 -0.01038,0.03655 -0.01947,0.07397 -0.03375,0.107909 -0.0097,0.02263 -0.02401,0.0409 -0.03504,0.06179 -0.01557,0.02785 -0.02856,0.05656 -0.04673,0.08093 -0.01493,0.02002 -0.03375,0.03481 -0.05062,0.05221 -0.01947,0.02089 -0.03634,0.04351 -0.05711,0.06005 h -6.49e-4 l -6.237525,4.814979 a 0.5198478,0.69705374 0 0 1 -0.519199,0 l -6.236877,-4.814979 c -0.02207,-0.0174 -0.03894,-0.03916 -0.05841,-0.05918 -0.01622,-0.0174 -0.03504,-0.03307 -0.04997,-0.05221 -0.01818,-0.02524 -0.03115,-0.05396 -0.04673,-0.0818 -0.01168,-0.02089 -0.02596,-0.03916 -0.03504,-0.06179 -0.01493,-0.03394 -0.02337,-0.07136 -0.03375,-0.107909 -0.0059,-0.02002 -0.01428,-0.03829 -0.01818,-0.05918 z m 1.021524,-9.327119 v 7.939973 l 2.182583,-1.684764 3.015247,-2.327864 v -7.939973 l -5.19848,4.012628 z m 6.236877,-14.363137 v 7.945195 l 2.965922,-2.271299 8.469431,-6.481469 V 8.6673958 Z M 48.228618,44.53129 V 17.495002 L 36.794563,8.6682661 v 8.0182929 l 5.973382,4.533025 0.002,0.0017 0.0026,0.0017 c 0.02012,0.01566 0.037,0.03829 0.05581,0.05744 0.01623,0.01741 0.03504,0.03133 0.04933,0.05047 l 0.0013,0.0026 c 0.01688,0.02176 0.02856,0.04873 0.04284,0.0731 0.01298,0.0235 0.02856,0.04351 0.03894,0.06788 l 6.49e-4,0.0026 c 0.01168,0.02611 0.01882,0.05744 0.02726,0.08702 0.0084,0.02611 0.01947,0.05047 0.02466,0.07832 v 8.71e-4 c 0.0065,0.03307 0.0078,0.06788 0.01038,0.101817 0.0026,0.02611 0.0078,0.05221 0.0078,0.07832 v 0.0017 18.693398 l 3.014598,2.328733 2.182582,1.683024 z m -5.717676,5.216154 5.196531,-4.010887 -5.195234,-4.010887 -5.195881,4.011758 5.195881,4.010016 z m -2.70243,-25.031278 -3.014598,2.326994 v 17.48813 l 2.182582,-1.684765 3.015247,-2.327863 V 23.030531 Z M 23.799666,45.014267 28.995548,41.00338 23.799666,36.992492 18.604431,41.00425 Z m 0.519848,-9.228783 3.015247,2.327864 2.182582,1.684764 v -7.939973 l -3.014598,-2.326993 -2.183231,-1.685635 z m 11.95585,-17.892787 -7.62119,5.834018 -3.809621,2.915268 5.191989,4.008277 5.977924,-4.614827 5.448343,-4.205818 z"
                style="stroke-width:0.751517" />
        <path
                id="path12-9"
                fill-rule="evenodd"
                fill="#ff2d20"
                d="m 30.538216,41.185258 a 0.52503978,0.70401557 0 0 0 0.01817,-0.181878 v -9.548157 a 0.5191988,0.69618351 0 0 0 -0.260895,-0.60394 l -5.976628,-4.613956 v -9.145241 c 0,-0.248886 -0.09865,-0.478626 -0.259599,-0.603939 L 11.583566,6.858189 c -0.02856,-0.021756 -0.05971,-0.035679 -0.09086,-0.050473 -0.01168,-0.00522 -0.02271,-0.014794 -0.03505,-0.019145 a 0.52244379,0.70053466 0 0 0 -0.266089,0 c -0.01428,0.00522 -0.02726,0.015664 -0.04089,0.022626 -0.02856,0.013924 -0.05841,0.026107 -0.08567,0.046992 l -12.4730932,9.629958 a 0.5198478,0.69705374 0 0 0 -0.2608974,0.603939 v 28.644471 c 0,0.06266 0.00649,0.123573 0.018172,0.182749 0.00389,0.02002 0.01298,0.03829 0.018172,0.05831 0.00974,0.03655 0.018821,0.07397 0.033099,0.107908 0.00974,0.02263 0.024013,0.0409 0.035695,0.06179 0.014927,0.02785 0.028556,0.05656 0.046079,0.08093 0.014927,0.02002 0.034397,0.03481 0.051271,0.05221 0.018821,0.02088 0.035695,0.04351 0.057112,0.06005 h 6.49e-4 l 6.2368757,4.814979 a 0.52049679,0.69792397 0 0 0 0.5191988,0 l 6.2368761,-4.814979 h 0.0013 c 0.02077,-0.0174 0.03829,-0.03916 0.05711,-0.05918 0.01687,-0.0174 0.0357,-0.03307 0.05062,-0.05221 0.01817,-0.02524 0.03115,-0.05395 0.04673,-0.0818 0.01103,-0.02089 0.02596,-0.03916 0.03505,-0.06179 0.01493,-0.03481 0.02336,-0.07136 0.03375,-0.107908 0.0052,-0.02002 0.01428,-0.03829 0.01817,-0.05918 a 0.52503978,0.70401557 0 0 0 0.01817,-0.181878 V 27.845511 l 5.197178,4.012628 v 9.146111 c 0,0.06092 0.0065,0.122702 0.01817,0.181008 0.0046,0.02088 0.01298,0.03916 0.01818,0.05918 0.01038,0.03655 0.01947,0.07397 0.03375,0.107909 0.0097,0.02263 0.02401,0.0409 0.03504,0.06179 0.01558,0.02785 0.02856,0.05656 0.04673,0.08093 0.01493,0.02002 0.03375,0.03481 0.05062,0.05221 0.01947,0.02089 0.03634,0.04351 0.05711,0.06005 h 6.48e-4 l 6.237526,4.814979 a 0.5198478,0.69705374 0 0 0 0.519198,0 l 6.236875,-4.814979 c 0.02207,-0.0174 0.03894,-0.03916 0.05841,-0.05918 0.01622,-0.0174 0.03504,-0.03307 0.04997,-0.05221 0.01818,-0.02524 0.03115,-0.05396 0.04673,-0.0818 0.01168,-0.02089 0.02596,-0.03916 0.03504,-0.06179 0.01493,-0.03394 0.02337,-0.07136 0.03375,-0.107909 0.0059,-0.02002 0.01428,-0.03829 0.01818,-0.05918 z m -1.021523,-9.327119 v 7.939973 l -2.182582,-1.684764 -3.015248,-2.327864 v -7.939973 l 5.198478,4.012628 z M 23.279817,17.495002 v 7.945195 L 20.313894,23.168898 11.844463,16.687429 V 8.6673958 Z M -0.62928804,44.53129 V 17.495002 L 10.804767,8.6682661 v 8.0182929 l -5.9733817,4.533025 -0.00195,0.0017 -0.0026,0.0017 c -0.020119,0.01566 -0.036993,0.03829 -0.055814,0.05744 -0.016225,0.01741 -0.035046,0.03133 -0.049323,0.05047 l -0.0013,0.0026 c -0.016874,0.02176 -0.028556,0.04873 -0.042834,0.0731 -0.01298,0.0235 -0.028556,0.04351 -0.03894,0.06788 l -6.489e-4,0.0026 c -0.011682,0.02611 -0.018821,0.05744 -0.027258,0.08702 -0.00844,0.02611 -0.01947,0.05047 -0.024662,0.07832 v 8.71e-4 c -0.00649,0.03307 -0.00779,0.06788 -0.010384,0.101817 -0.0026,0.02611 -0.00779,0.05221 -0.00779,0.07832 v 0.0017 18.693398 l -3.014598,2.328734 -2.18258198,1.683023 z M 5.0883888,49.747445 -0.10814223,45.736557 5.0870908,41.72567 10.282973,45.737428 5.0870908,49.747445 Z M 7.7908184,24.716166 10.805416,27.043159 V 44.53129 L 8.6228344,42.846526 5.6075874,40.518662 V 23.030531 Z m 16.0088466,20.298101 -5.195883,-4.010887 5.195883,-4.010888 5.195232,4.011758 z m -0.519848,-9.228783 -3.015248,2.327864 -2.182582,1.684764 v -7.939973 l 3.014598,-2.326994 2.183232,-1.685634 z m -11.955851,-17.892787 7.62119,5.834018 3.809621,2.915268 -5.191988,4.008277 -5.977925,-4.614827 -5.4483429,-4.205818 z"
                style="stroke-width:0.751517" />
    </g>
</svg>
