<?xml version="1.0" encoding="UTF-8" standalone="no"?>
<svg
   version="1.1"
   viewBox="0 0 35.808174 38.337311"
   height="12.000001"
   width="12"
   id="svg1909"
   sodipodi:docname="laravel-logo-gutter.svg"
   inkscape:version="1.1 (c4e8f9e, 2021-05-24)"
   xmlns:inkscape="http://www.inkscape.org/namespaces/inkscape"
   xmlns:sodipodi="http://sodipodi.sourceforge.net/DTD/sodipodi-0.dtd"
   xmlns="http://www.w3.org/2000/svg"
   xmlns:svg="http://www.w3.org/2000/svg">
  <defs
     id="defs1913" />
  <sodipodi:namedview
     id="namedview1911"
     pagecolor="#505050"
     bordercolor="#eeeeee"
     borderopacity="1"
     inkscape:pageshadow="0"
     inkscape:pageopacity="0"
     inkscape:pagecheckerboard="0"
     showgrid="false"
     width="14px"
     inkscape:zoom="48.3125"
     inkscape:cx="2.1836999"
     inkscape:cy="6.7994825"
     inkscape:window-width="1440"
     inkscape:window-height="819"
     inkscape:window-x="0"
     inkscape:window-y="25"
     inkscape:window-maximized="0"
     inkscape:current-layer="svg1909"
     fit-margin-top="0"
     fit-margin-left="0"
     fit-margin-right="0"
     fit-margin-bottom="0" />
  <path
     id="path12"
     fill-rule="evenodd"
     fill="#ff2d20"
     d="m 36.503353,8.6729109 a 0.60675058,0.60675058 0 0 1 0.021,0.15675 V 17.05867 a 0.60000057,0.60000057 0 0 1 -0.301501,0.5205 l -6.906757,3.976504 v 7.881755 c 0,0.2145 -0.114,0.412502 -0.3,0.5205 l -14.417263,8.299508 c -0.033,0.01875 -0.069,0.03075 -0.105,0.04351 -0.01354,0.0045 -0.02625,0.01268 -0.04051,0.01646 a 0.60375057,0.60375057 0 0 1 -0.3075,0 c -0.01646,-0.0045 -0.03149,-0.01354 -0.04725,-0.01949 -0.033,-0.012 -0.06751,-0.02251 -0.099,-0.04051 L -0.41467845,29.957931 A 0.60075057,0.60075057 0 0 1 -0.71617875,29.43743 V 4.7504075 c 0,-0.054 0.00751,-0.1065001 0.021,-0.1575001 0.00451,-0.017251 0.015,-0.033 0.021,-0.050249 0.011246,-0.0315 0.021749,-0.063749 0.038249,-0.093 0.011246,-0.0195 0.027751,-0.035251 0.041249,-0.053249 0.017251,-0.024 0.033,-0.048751 0.053249,-0.069751 0.017251,-0.017251 0.039751,-0.03 0.059249,-0.045 0.021751,-0.018 0.041251,-0.0375 0.066,-0.051749 h 7.5e-4 L 6.792078,0.08015312 a 0.60150057,0.60150057 0 0 1 0.6000009,0 L 14.599586,4.229907 h 0.0015 c 0.024,0.015 0.04425,0.033749 0.066,0.051 0.01949,0.015 0.04125,0.0285 0.05849,0.045 0.021,0.021749 0.036,0.0465 0.054,0.0705 0.01268,0.018 0.03,0.033749 0.04051,0.053249 0.01725,0.03 0.027,0.0615 0.039,0.093 0.006,0.017251 0.01646,0.033 0.021,0.051 a 0.60675058,0.60675058 0 0 1 0.021,0.1567493 V 20.169671 l 6.006006,-3.458254 V 8.8289109 c 0,-0.0525 0.0075,-0.10575 0.021,-0.156 0.0051,-0.018 0.01509,-0.03375 0.021,-0.051 0.012,-0.0315 0.02251,-0.06375 0.039,-0.093 0.01131,-0.0195 0.02776,-0.03525 0.04051,-0.05325 0.018,-0.024 0.033,-0.04874 0.054,-0.06974 0.01725,-0.01726 0.039,-0.03 0.05849,-0.045 0.02251,-0.018 0.042,-0.0375 0.066,-0.05175 h 7.5e-4 l 7.208257,-4.1497532 a 0.60075057,0.60075057 0 0 1 0.600001,0 l 7.207507,4.1497532 c 0.02549,0.015 0.045,0.03375 0.06749,0.051 0.01875,0.015 0.04049,0.0285 0.05776,0.045 0.021,0.02176 0.036,0.0465 0.054,0.0705 0.01354,0.018 0.03,0.03375 0.04049,0.05325 0.01725,0.02925 0.027,0.0615 0.039,0.093 0.0069,0.01725 0.01646,0.033 0.021,0.051 z M 35.322852,16.711418 V 9.8684119 l -2.522254,1.4520021 -3.484503,2.006252 v 6.843007 l 6.007506,-3.458255 z m -7.207507,12.378763 v -6.847506 l -3.427504,1.957501 -9.787509,5.586006 v 6.912006 z M 0.48531845,5.7891585 V 29.090181 L 13.698831,36.697437 v -6.910506 l -6.903007,-3.906753 -0.00223,-0.0015 -0.003,-0.0015 c -0.023246,-0.01354 -0.042746,-0.033 -0.0645,-0.04949 -0.018746,-0.01491 -0.0405,-0.027 -0.057,-0.04351 l -0.00146,-0.0022 c -0.0195,-0.01875 -0.033,-0.042 -0.0495,-0.063 -0.015,-0.02024 -0.033,-0.03749 -0.045,-0.05849 l -7.5e-4,-0.0022 c -0.013509,-0.02249 -0.021754,-0.04949 -0.0315,-0.075 -0.00975,-0.02249 -0.0225,-0.04351 -0.0285,-0.06749 v -7.5e-4 c -0.00746,-0.02849 -0.009,-0.05849 -0.012,-0.08775 -0.003,-0.02249 -0.009,-0.045 -0.009,-0.06749 V 25.358308 9.2475429 L 3.0076308,7.2405099 0.48537845,5.7900088 Z M 7.0928243,1.2936542 1.087569,4.7504075 7.0913243,8.2071609 13.09583,4.7496575 7.0913243,1.2936542 Z M 10.215827,22.866675 13.69958,20.861173 V 5.7891585 L 11.177328,7.2411599 7.6928249,9.2474119 V 24.319426 Z M 28.716094,5.3729081 22.711589,8.8296609 28.716094,12.286414 34.719851,8.8289109 Z M 28.115345,13.326666 24.630841,11.320414 22.108588,9.8684119 v 6.8430061 l 3.483754,2.005502 2.523003,1.452753 z m -13.816513,15.420764 8.807257,-5.028005 4.402504,-2.512502 -6.000005,-3.454504 -6.908256,3.977255 -6.2962561,3.624753 z"
     style="stroke-width:0.750001" />
</svg>
