<?xml version="1.0" encoding="UTF-8" standalone="no"?>
<svg
   width="14"
   height="14"
   viewBox="0 0 3.7041666 3.7041668"
   version="1.1"
   id="svg2977"
   sodipodi:docname="laravel-logo-for-tool-window_dark.svg"
   inkscape:version="1.1 (c4e8f9e, 2021-05-24)"
   xmlns:inkscape="http://www.inkscape.org/namespaces/inkscape"
   xmlns:sodipodi="http://sodipodi.sourceforge.net/DTD/sodipodi-0.dtd"
   xmlns="http://www.w3.org/2000/svg"
   xmlns:svg="http://www.w3.org/2000/svg">
  <defs
     id="defs2981" />
  <sodipodi:namedview
     id="namedview2979"
     pagecolor="#505050"
     bordercolor="#eeeeee"
     borderopacity="1"
     inkscape:pageshadow="0"
     inkscape:pageopacity="0"
     inkscape:pagecheckerboard="0"
     showgrid="false"
     inkscape:zoom="46.428571"
     inkscape:cx="3.78"
     inkscape:cy="7"
     inkscape:window-width="1440"
     inkscape:window-height="844"
     inkscape:window-x="1"
     inkscape:window-y="0"
     inkscape:window-maximized="0"
     inkscape:current-layer="svg2977" />
  <g
     id="g2985"
     transform="matrix(0.85714288,0,0,0.85714288,0.26458331,0.26458334)">
    <path
       fill="#afb1b3"
       d="M 0.72080383,0 1.3490267,0.36158119 0.72080383,0.72331969 0.09266332,0.36165984 Z M 0.0298264,0.47045278 0.02966176,2.9081932 1.4121105,3.7040991 V 2.9810885 L 0.67669876,2.5623856 0.65819641,0.83219128 0.0298264,0.47045278 M 2.9832805,0.4267889 2.3550577,0.78844874 2.9832805,1.1501104 3.611421,0.788371 2.9832805,0.4267889"
       id="path2973" />
    <path
       fill="#afb1b3"
       d="M 1.4121929,0.47033845 V 2.0472349 l -0.62845153,0.36182 V 0.8321547 L 1.4121929,0.47033845 M 2.2919921,1.613073 2.9204435,1.9748902 V 1.2589444 L 2.2919921,0.89712732 Z M 0.84771245,2.5173402 1.4749019,2.8723331 2.8569755,2.0834115 2.2292192,1.7219868 0.84771245,2.5173402 M 1.537821,3.7041666 V 2.9810089 L 2.9204255,2.1917755 V 2.9081932 Z M 3.6745049,0.89712732 V 1.613073 L 3.0460533,1.9748902 V 1.2589444 Z"
       id="path2975" />
  </g>
</svg>
