<?xml version="1.0" encoding="UTF-8" standalone="no"?>
<svg
   width="13"
   height="13"
   viewBox="0 0 3.4395833 3.4395835"
   version="1.1"
   id="svg2977"
   sodipodi:docname="laravel-logo-for-tool-window_dark.svg"
   inkscape:version="1.1 (c4e8f9e, 2021-05-24)"
   xmlns:inkscape="http://www.inkscape.org/namespaces/inkscape"
   xmlns:sodipodi="http://sodipodi.sourceforge.net/DTD/sodipodi-0.dtd"
   xmlns="http://www.w3.org/2000/svg"
   xmlns:svg="http://www.w3.org/2000/svg">
  <defs
     id="defs2981" />
  <sodipodi:namedview
     id="namedview2979"
     pagecolor="#505050"
     bordercolor="#eeeeee"
     borderopacity="1"
     inkscape:pageshadow="0"
     inkscape:pageopacity="0"
     inkscape:pagecheckerboard="0"
     showgrid="true"
     inkscape:zoom="46.428571"
     inkscape:cx="6.6015385"
     inkscape:cy="6.6446154"
     inkscape:window-width="1440"
     inkscape:window-height="819"
     inkscape:window-x="0"
     inkscape:window-y="25"
     inkscape:window-maximized="0"
     inkscape:current-layer="g2985"
     width="13px">
    <inkscape:grid
       type="xygrid"
       id="grid3437" />
  </sodipodi:namedview>
  <g
     id="g2985"
     transform="scale(0.92857146)">
    <path
       fill="#afb1b3"
       d="M 0.69114207,0 1.3193649,0.36158119 0.69114207,0.72331969 0.06300156,0.36165984 Z M 1.6464e-4,0.47045278 0,2.9081932 1.3824487,3.7040991 V 2.9810885 L 0.647037,2.5623856 0.62853465,0.83219128 1.6464e-4,0.47045278 M 2.9536187,0.4267889 2.3253959,0.78844874 2.9536187,1.1501104 3.5817592,0.788371 2.9536187,0.4267889"
       id="path2973" />
    <path
       fill="#afb1b3"
       d="M 1.4121929,0.47033845 V 2.0472349 l -0.62845153,0.36182 V 0.8321547 L 1.4121929,0.47033845 M 2.2919921,1.613073 2.9204435,1.9748902 V 1.2589444 L 2.2919921,0.89712732 Z M 0.84771245,2.5173402 1.4749019,2.8723331 2.8569755,2.0834115 2.2292192,1.7219868 0.84771245,2.5173402 M 1.537821,3.7041666 V 2.9810089 L 2.9204255,2.1917755 V 2.9081932 Z M 3.6745049,0.89712732 V 1.613073 L 3.0460533,1.9748902 V 1.2589444 Z"
       id="path2975" />
  </g>
</svg>
