<?xml version="1.0" encoding="UTF-8" standalone="no"?>
<svg
   version="1.1"
   viewBox="0 0 47.744232 51.116411"
   height="16"
   width="16"
   id="svg1909"
   sodipodi:docname="laravel-logo.svg"
   inkscape:version="1.1 (c4e8f9e, 2021-05-24)"
   xmlns:inkscape="http://www.inkscape.org/namespaces/inkscape"
   xmlns:sodipodi="http://sodipodi.sourceforge.net/DTD/sodipodi-0.dtd"
   xmlns="http://www.w3.org/2000/svg"
   xmlns:svg="http://www.w3.org/2000/svg">
  <defs
     id="defs1913" />
  <sodipodi:namedview
     id="namedview1911"
     pagecolor="#505050"
     bordercolor="#eeeeee"
     borderopacity="1"
     inkscape:pageshadow="0"
     inkscape:pageopacity="0"
     inkscape:pagecheckerboard="0"
     showgrid="false"
     width="14px"
     inkscape:zoom="48.3125"
     inkscape:cx="6.778784"
     inkscape:cy="8"
     inkscape:window-width="1920"
     inkscape:window-height="999"
     inkscape:window-x="0"
     inkscape:window-y="25"
     inkscape:window-maximized="0"
     inkscape:current-layer="svg1909" />
  <path
     id="path12"
     fill-rule="evenodd"
     fill="#ff2d20"
     d="m 45.571241,13.313163 a 0.707875,0.707875 0 0 1 0.0245,0.182875 v 9.6005 a 0.7,0.7 0 0 1 -0.35175,0.60725 l -8.057875,4.63925 v 9.195375 c 0,0.25025 -0.133,0.48125 -0.35,0.60725 l -16.820125,9.68275 c -0.0385,0.02188 -0.0805,0.03588 -0.1225,0.05075 -0.01575,0.0053 -0.03063,0.01488 -0.04725,0.01925 a 0.704375,0.704375 0 0 1 -0.35875,0 c -0.01925,-0.0052 -0.03675,-0.01575 -0.05513,-0.02275 -0.0385,-0.014 -0.07875,-0.02625 -0.1155,-0.04725 L 2.5002413,38.145663 a 0.700875,0.700875 0 0 1 -0.35175,-0.60725 v -28.8015 c 0,-0.063 0.00875,-0.12425 0.0245,-0.18375 0.00525,-0.020125 0.0175,-0.0385 0.0245,-0.058625 0.013125,-0.03675 0.025375,-0.074375 0.044625,-0.1085 0.013125,-0.02275 0.032375,-0.041125 0.048125,-0.062125 0.020125,-0.028 0.0385,-0.056875 0.062125,-0.081375 0.020125,-0.020125 0.046375,-0.035 0.069125,-0.0525 0.025375,-0.021 0.048125,-0.04375 0.077,-0.060375 h 8.75e-4 L 10.908116,3.288288 a 0.70175,0.70175 0 0 1 0.7,0 l 8.40875,4.841375 h 0.0018 c 0.028,0.0175 0.05162,0.039375 0.077,0.0595 0.02275,0.0175 0.04813,0.03325 0.06825,0.0525 0.0245,0.025375 0.042,0.05425 0.063,0.08225 0.01487,0.021 0.035,0.039375 0.04725,0.062125 0.02013,0.035 0.0315,0.07175 0.0455,0.1085 0.007,0.020125 0.01925,0.0385 0.0245,0.0595 a 0.707875,0.707875 0 0 1 0.0245,0.182875 v 17.989125 l 7.007,-4.034625 v -9.19625 c 0,-0.06125 0.0087,-0.123375 0.0245,-0.182 0.0061,-0.021 0.0175,-0.03937 0.0245,-0.0595 0.014,-0.03675 0.02625,-0.07437 0.0455,-0.1085 0.01312,-0.02275 0.03238,-0.04113 0.04725,-0.06212 0.021,-0.028 0.0385,-0.05687 0.063,-0.08137 0.02013,-0.02013 0.0455,-0.035 0.06825,-0.0525 0.02625,-0.021 0.049,-0.04375 0.077,-0.06038 h 8.75e-4 l 8.409625,-4.841375 a 0.700875,0.700875 0 0 1 0.7,0 l 8.40875,4.841375 c 0.02975,0.0175 0.0525,0.03937 0.07875,0.0595 0.02188,0.0175 0.04725,0.03325 0.06738,0.0525 0.0245,0.02538 0.042,0.05425 0.063,0.08225 0.01575,0.021 0.035,0.03937 0.04725,0.06212 0.02013,0.03412 0.0315,0.07175 0.0455,0.1085 0.0079,0.02013 0.01925,0.0385 0.0245,0.0595 z m -1.37725,9.37825 v -7.9835 l -2.942625,1.694 -4.06525,2.340625 v 7.9835 l 7.00875,-4.034625 z m -8.40875,14.441875 v -7.98875 l -3.99875,2.28375 -11.41875,6.517 v 8.064 z M 3.5502413,9.948788 v 27.1845 l 15.4157497,8.875125 v -8.06225 l -8.0535,-4.557875 -0.0026,-0.0018 -0.0035,-0.0018 c -0.02712,-0.01575 -0.04987,-0.0385 -0.07525,-0.05775 -0.02187,-0.0175 -0.04725,-0.0315 -0.0665,-0.05075 l -0.0017,-0.0026 c -0.02275,-0.02188 -0.0385,-0.049 -0.05775,-0.0735 -0.0175,-0.02363 -0.0385,-0.04375 -0.0525,-0.06825 l -8.75e-4,-0.0026 c -0.01575,-0.02625 -0.02538,-0.05775 -0.03675,-0.0875 -0.01138,-0.02625 -0.02625,-0.05075 -0.03325,-0.07875 v -8.75e-4 c -0.0087,-0.03325 -0.0105,-0.06825 -0.014,-0.102375 -0.0035,-0.02625 -0.0105,-0.0525 -0.0105,-0.07875 v -0.0018 -18.795875 l -4.0643747,-2.3415 -2.942625,-1.69225 z m 7.7087497,-5.24475 -7.0061247,4.032875 7.0043747,4.032875 7.00525,-4.03375 -7.00525,-4.032 z m 3.6435,25.1685 4.064375,-2.33975 v -17.584 l -2.942625,1.694 -4.06525,2.340625 v 17.584 z m 21.583625,-20.409375 -7.00525,4.032875 7.00525,4.032875 7.004375,-4.03375 z m -0.700875,9.279375 -4.06525,-2.340625 -2.942625,-1.694 v 7.9835 l 4.064375,2.33975 2.9435,1.694875 z m -16.11925,17.990875 10.275125,-5.866 5.13625,-2.93125 -7,-4.03025 -8.059625,4.640125 -7.345625,4.228875 z"
     style="stroke-width:0.875" />
</svg>
