<?xml version="1.0" encoding="UTF-8" standalone="no"?>
<svg
   version="1.1"
   viewBox="0 0 35.808174 38.337311"
   height="12.000001"
   width="12"
   id="svg1909"
   sodipodi:docname="route-gutter.svg"
   inkscape:version="1.1 (c4e8f9e, 2021-05-24)"
   xmlns:inkscape="http://www.inkscape.org/namespaces/inkscape"
   xmlns:sodipodi="http://sodipodi.sourceforge.net/DTD/sodipodi-0.dtd"
   xmlns="http://www.w3.org/2000/svg"
   xmlns:svg="http://www.w3.org/2000/svg">
  <defs
     id="defs1913" />
  <sodipodi:namedview
     id="namedview1911"
     pagecolor="#505050"
     bordercolor="#eeeeee"
     borderopacity="1"
     inkscape:pageshadow="0"
     inkscape:pageopacity="0"
     inkscape:pagecheckerboard="0"
     showgrid="false"
     width="14px"
     inkscape:zoom="48.3125"
     inkscape:cx="4.9055627"
     inkscape:cy="6.6338939"
     inkscape:window-width="1440"
     inkscape:window-height="819"
     inkscape:window-x="0"
     inkscape:window-y="25"
     inkscape:window-maximized="0"
     inkscape:current-layer="layer2"
     fit-margin-top="0"
     fit-margin-left="0"
     fit-margin-right="0"
     fit-margin-bottom="0" />
  <g
     inkscape:groupmode="layer"
     id="layer2"
     inkscape:label="Icon">
    <path
       id="path12"
       style="stroke-width:0.234759;fill:#ff2d20;fill-opacity:1"
       d="M 2.3496094 0.025390625 L 0.09375 1.3242188 C 0.08600329 1.3286788 0.081027053 1.3342096 0.07421875 1.3398438 C 0.068115661 1.3445389 0.060087253 1.3481159 0.0546875 1.3535156 C 0.04834934 1.3600889 0.042509128 1.3694409 0.037109375 1.3769531 C 0.032884352 1.3825867 0.028910747 1.3864744 0.025390625 1.3925781 C 0.020225943 1.401734 0.017191997 1.4120152 0.013671875 1.421875 C 0.011793809 1.4272741 0.0072710547 1.4321002 0.005859375 1.4375 C 0.0016368563 1.4534636 0 1.4694255 0 1.4863281 L 0 9.2148438 A 0.18804155 0.18804155 0 0 0 0.09375 9.3769531 L 4.6054688 11.974609 C 4.6153255 11.980244 4.6263894 11.984525 4.6367188 11.988281 C 4.6416518 11.990144 4.6471916 11.992732 4.6523438 11.994141 A 0.18898058 0.18898058 0 0 0 4.7480469 11.994141 C 4.7525104 11.992957 4.7574806 11.98969 4.7617188 11.988281 C 4.7729871 11.984287 4.7826394 11.980478 4.7929688 11.974609 L 6.2597656 11.130859 A 3.5000001 3.5000001 0 0 1 6.0292969 10.830078 L 4.8886719 11.486328 L 4.8886719 9.3242188 L 5.5039062 8.9726562 A 3.5000001 3.5000001 0 0 1 5.5644531 8.5039062 L 4.6992188 8.9980469 L 2.8242188 7.9355469 L 4.7949219 6.8007812 L 6.9570312 5.5566406 L 7.4960938 5.8671875 A 3.5000001 3.5000001 0 0 1 7.9335938 5.6855469 L 7.1445312 5.2304688 L 7.1445312 3.0898438 L 7.9335938 3.5429688 L 9.0253906 4.171875 L 9.0253906 5.5019531 A 3.5000001 3.5000001 0 0 1 9.4003906 5.5253906 L 9.4003906 4.171875 L 10.490234 3.5429688 L 11.28125 3.0898438 L 11.28125 5.2304688 L 10.341797 5.7714844 A 3.5000001 3.5000001 0 0 1 10.75 5.96875 L 10.751953 5.96875 L 11.5625 5.5019531 A 0.18780679 0.18780679 0 0 0 11.65625 5.3398438 L 11.65625 2.7636719 A 0.18991962 0.18991962 0 0 0 11.650391 2.7148438 C 11.64897 2.7092096 11.644738 2.7046182 11.642578 2.6992188 C 11.638822 2.6893589 11.636259 2.6790774 11.630859 2.6699219 C 11.627576 2.6638182 11.623379 2.6579779 11.619141 2.6523438 C 11.613506 2.6448315 11.608136 2.6376705 11.601562 2.6308594 C 11.596157 2.6256947 11.589853 2.6218827 11.583984 2.6171875 C 11.576945 2.6117881 11.570479 2.6062577 11.5625 2.6015625 L 9.3066406 1.3027344 A 0.18804155 0.18804155 0 0 0 9.1191406 1.3027344 L 6.8632812 2.6015625 L 6.8613281 2.6015625 C 6.8538159 2.6060229 6.8488428 2.6115533 6.8417969 2.6171875 C 6.8356963 2.6218827 6.8296182 2.6254568 6.8242188 2.6308594 C 6.8176455 2.6374326 6.8122748 2.6448315 6.8066406 2.6523438 C 6.8026497 2.6579779 6.7965089 2.6638182 6.7929688 2.6699219 C 6.7878072 2.6790774 6.7850061 2.6893589 6.78125 2.6992188 C 6.7794001 2.7046182 6.776987 2.7092096 6.7753906 2.7148438 C 6.771165 2.7305726 6.7675781 2.7472388 6.7675781 2.7636719 L 6.7675781 5.2304688 L 4.8886719 6.3125 L 4.8886719 1.4863281 A 0.18991962 0.18991962 0 0 0 4.8808594 1.4375 C 4.8794383 1.4318658 4.8768781 1.4272748 4.875 1.421875 C 4.8712439 1.4120152 4.8686807 1.4019685 4.8632812 1.3925781 C 4.8599915 1.3864744 4.8535784 1.3825873 4.8496094 1.3769531 C 4.8439752 1.3694409 4.8405576 1.3603233 4.8339844 1.3535156 C 4.8285881 1.3483509 4.8205537 1.3445389 4.8144531 1.3398438 C 4.8076451 1.334444 4.8024341 1.3289139 4.7949219 1.3242188 L 2.5371094 0.025390625 A 0.18827631 0.18827631 0 0 0 2.3496094 0.025390625 z M 2.4433594 0.40429688 L 4.3242188 1.4863281 L 2.4433594 2.5683594 L 0.56445312 1.4863281 L 2.4433594 0.40429688 z M 9.2128906 1.6816406 L 11.091797 2.7636719 L 9.2128906 3.8457031 L 7.3339844 2.7636719 L 9.2128906 1.6816406 z M 0.37695312 1.8125 L 1.1660156 2.265625 L 2.2558594 2.8945312 L 2.2558594 7.9375 C 2.2558594 7.9445396 2.2588266 7.9519448 2.2597656 7.9589844 C 2.2607047 7.9681431 2.2593837 7.9774104 2.2617188 7.9863281 C 2.2635968 7.9938341 2.2684325 8.0007729 2.2714844 8.0078125 C 2.274535 8.0157974 2.2770215 8.0242104 2.28125 8.03125 C 2.2850061 8.0378232 2.2902267 8.0444459 2.2949219 8.0507812 C 2.3000866 8.0573545 2.3044432 8.0644435 2.3105469 8.0703125 L 2.3125 8.0703125 C 2.3176647 8.0754803 2.3242104 8.0793174 2.3300781 8.0839844 C 2.3368874 8.0891459 2.3423331 8.0953712 2.3496094 8.0996094 L 2.3515625 8.0996094 L 2.3515625 8.1015625 L 4.5117188 9.3242188 L 4.5117188 11.486328 L 0.37695312 9.1054688 L 0.37695312 1.8125 z M 4.5117188 1.8125 L 4.5117188 6.5292969 L 3.421875 7.1582031 L 2.6328125 7.6113281 L 2.6328125 2.8945312 L 3.7226562 2.265625 L 4.5117188 1.8125 z "
       transform="matrix(3.1947757,0,0,3.1947757,-1.264567,0)" />
  </g>
  <g
     inkscape:groupmode="layer"
     id="layer3"
     inkscape:label="Modifier Space" />
  <g
     inkscape:groupmode="layer"
     id="layer1"
     inkscape:label="Modifier"
     style="display:inline">
    <g
       style="fill:none"
       id="g2065"
       transform="matrix(1.8255861,0,0,1.8255861,16.534897,17.799467)">
      <path
         fill-rule="evenodd"
         clip-rule="evenodd"
         d="M 6,0.75 C 3.102,0.75 0.75,3.102 0.75,6 0.75,8.898 3.102,11.25 6,11.25 8.898,11.25 11.25,8.898 11.25,6 11.25,3.102 8.898,0.75 6,0.75 Z M 5.47499,10.1632 C 3.40124,9.906 1.79999,8.142 1.79999,6 c 0,-0.3255 0.042,-0.63525 0.11025,-0.93975 L 4.42499,7.575 V 8.1 c 0,0.5775 0.4725,1.05 1.05,1.05 z M 9.0975,8.82975 C 8.961,8.4045 8.5725,8.1 8.1,8.1 H 7.575 V 6.525 C 7.575,6.23625 7.33875,6 7.05,6 H 3.9 V 4.95 h 1.05 c 0.28875,0 0.525,-0.23625 0.525,-0.525 v -1.05 h 1.05 c 0.5775,0 1.05,-0.4725 1.05,-1.05 V 2.10975 C 9.11325,2.7345 10.2,4.24125 10.2,6 10.2,7.092 9.78,8.08425 9.0975,8.82975 Z"
         fill="#7f8b91"
         fill-opacity="0.9"
         id="path2056" />
    </g>
  </g>
</svg>
